# Blender 4.2.3 LTS
# www.blender.org
mtllib skybox.mtl
o Cube
v 1.000000 1.000000 -1.000000
v 1.000000 -1.000000 -1.000000
v 1.000000 1.000000 1.000000
v 1.000000 -1.000000 1.000000
v -1.000000 1.000000 -1.000000
v -1.000000 -1.000000 -1.000000
v -1.000000 1.000000 1.000000
v -1.000000 -1.000000 1.000000
vn -0.0000 1.0000 -0.0000
vn -0.0000 -0.0000 1.0000
vn -1.0000 -0.0000 -0.0000
vn -0.0000 -1.0000 -0.0000
vn 1.0000 -0.0000 -0.0000
vn -0.0000 -0.0000 -1.0000
vt 1.000000 1.000000
vt 0.000000 1.000000
vt 0.000000 0.000000
vt 1.000000 0.000000
vt 0.000000 0.000000
vt 0.000000 1.000000
s 0
usemtl back
f 8/3/3 7/2/3 5/1/3 6/4/3
usemtl front
f 2/4/5 1/1/5 3/2/5 4/3/5
usemtl top
f 1/1/1 5/2/1 7/3/1 3/4/1
usemtl right
f 6/3/6 5/2/6 1/1/6 2/4/6
usemtl left
f 4/4/2 3/1/2 7/2/2 8/3/2
usemtl bottom
f 6/1/4 2/4/4 4/5/4 8/6/4
